:SAMPLES-PER-SECOND 30
:FULLY-SPECIFIED
:DEGREES
410
root  -19.5176 39.4577 -2.78391 173.747 -58.4964 -175.679
RightUpLeg  0.726467 -17.7547 4.2026
RightLeg  21.4777 -13.3251 0.0116813
RightFoot  -18.2457 -0.501931 -6.28179
RightToes  0.00048216 0.542163 -0.142577
Spine  8.63976 2.90785 13.5516
Spine1  13.4436 6.00444 -6.79218
HEad  7.65184 -3.71458 -1.02674
LeftShoulder1  8.94209 -13.3431 -46.2995
LeftArm  -25.1567 30.2394 -17.5112
LeftForeArm  56.7454 -78.6604 -71.4633
LeftHand  -0.25398 0.0180481 5.50724
RightShoulder  6.25182 10.5496 38.4246
RightArm  -2.48216 -17.044 28.833
RightForeArm  19.2441 77.5632 88.1911
RightHand  0.417652 -7.32804 -25.8389
LeftUpLeg  -27.1929 3.14129 1.10911
LeftLeg  26.0347 0.928839 0.995484
LeftFoot  0.479897 0.103118 -0.992571
LeftToes  1.06248e-005 4.65855e-005 -8.185e-006
411
root  -20.9066 39.3193 -3.66098 174.032 -60.6882 -175.053
RightUpLeg  3.82672 -16.5708 3.35899
RightLeg  19.4925 -16.1569 1.63749
RightFoot  -19.8138 -0.486271 -4.77399
RightToes  0.00048216 0.542163 -0.142577
Spine  7.24508 1.75833 14.3169
Spine1  13.6141 4.98046 -8.61606
HEad  7.62682 -3.04442 -0.836687
LeftShoulder1  8.85061 -13.2578 -46.0517
LeftArm  -26.1551 31.0603 -17.7313
LeftForeArm  62.7624 -78.9822 -77.5104
LeftHand  -0.25398 0.0180481 5.50724
RightShoulder  6.27639 10.6453 38.3022
RightArm  -2.07467 -16.9566 29.209
RightForeArm  19.297 77.5617 88.4723
RightHand  0.378285 -7.14462 -25.9307
LeftUpLeg  -26.3192 5.93275 -1.88371
LeftLeg  11.2799 4.47504 0.233662
LeftFoot  1.8627 0.332291 -2.9851
LeftToes  1.06248e-005 4.65855e-005 -8.185e-006
412
root  -22.4259 38.895 -4.49699 172.628 -64.6948 -171.427
RightUpLeg  5.1062 -17.9691 3.84824
RightLeg  19.5328 -18.2999 2.88469
RightFoot  -21.6815 -0.426893 -3.07975
RightToes  0.00048216 0.542163 -0.142577
Spine  3.99772 -0.1465 16.5946
Spine1  13.881 2.88493 -10.5045
HEad  7.95105 -2.1128 -0.717579
LeftShoulder1  8.72211 -13.1444 -45.6796
LeftArm  -26.9392 31.7464 -18.029
LeftForeArm  67.8475 -79.1513 -82.4867
LeftHand  -0.25398 0.0180481 5.50724
RightShoulder  6.27687 10.6883 38.176
RightArm  -1.72751 -16.8067 29.7099
RightForeArm  18.0445 77.553 86.7181
RightHand  0.372889 -7.14551 -25.611
LeftUpLeg  -26.3549 0.0324967 -0.703825
LeftLeg  0.182924 18.1399 -3.55717
LeftFoot  1.83439 0.427952 -3.74784
LeftToes  1.06248e-005 4.65855e-005 -8.185e-006
413
root  -23.8858 38.4277 -5.55015 171.134 -66.597 -168.193
RightUpLeg  6.5255 -22.0484 4.3627
RightLeg  20.7073 -15.888 2.9821
RightFoot  -23.6313 -0.379036 -2.05203
RightToes  0.00048216 0.542163 -0.142577
Spine  1.72239 -0.949315 17.1416
Spine1  13.8419 1.79773 -11.1709
HEad  8.69123 -1.18264 -0.352194
LeftShoulder1  8.53195 -12.9722 -45.1306
LeftArm  -27.1034 32.3042 -18.1134
LeftForeArm  72.7158 -79.2407 -87.1169
LeftHand  -0.25398 0.0180481 5.50724
RightShoulder  6.30239 10.6686 38.4083
RightArm  -1.40644 -16.8939 29.8566
RightForeArm  16.9681 77.5366 85.0906
RightHand  0.381153 -7.21066 -25.2553
LeftUpLeg  -27.3877 -2.27283 -0.492588
LeftLeg  -3.68877 26.6581 -6.2202
LeftFoot  2.23297 0.0546403 -0.695407
LeftToes  1.06248e-005 4.65855e-005 -8.185e-006
414
root  -25.1394 38.1866 -6.85392 173.044 -65.5037 -171.63
RightUpLeg  11.295 -29.3568 0.640581
RightLeg  22.1151 -6.22255 1.96833
RightFoot  -24.7699 -0.076126 0.723731
RightToes  0.00048216 0.542163 -0.142577
Spine  4.29077 -0.601222 12.5401
Spine1  13.3009 2.29505 -9.63387
HEad  9.36655 -0.47733 0.390385
LeftShoulder1  8.40093 -12.8235 -44.8307
LeftArm  -26.6292 32.3163 -17.6264
LeftForeArm  75.5849 -79.267 -89.7699
LeftHand  -0.25398 0.0180481 5.50724
RightShoulder  6.39559 10.6952 38.9564
RightArm  -1.37931 -17.2623 29.7339
RightForeArm  15.8328 77.5141 83.972
RightHand  0.361486 -7.12396 -25.2148
LeftUpLeg  -26.1095 -1.10548 -1.84169
LeftLeg  -1.87693 29.4249 -6.13347
LeftFoot  6.23439 -1.05329 6.39388
LeftToes  1.06248e-005 4.65855e-005 -8.185e-006
415
root  -26.223 38.0909 -8.28668 176.038 -61.9558 -178.507
RightUpLeg  15.8059 -30.6676 -4.68753
RightLeg  26.567 1.24649 -0.144673
RightFoot  -22.9367 0.526969 7.07862
RightToes  0.00048216 0.542163 -0.142577
Spine  9.82879 1.39455 4.75466
Spine1  12.6235 3.87504 -6.56742
HEad  9.49435 0.166181 1.11052
LeftShoulder1  8.47375 -12.8546 -45.1444
LeftArm  -25.9074 31.0085 -16.5443
LeftForeArm  71.4389 -79.2285 -85.6467
LeftHand  -0.25398 0.0180481 5.50724
RightShoulder  6.52371 10.8205 39.4341
RightArm  -2.08852 -17.325 30.1149
RightForeArm  12.2931 77.4119 80.5715
RightHand  0.360538 -7.11506 -25.2727
LeftUpLeg  -24.4409 6.13542 -4.7437
LeftLeg  5.42736 24.4177 -3.34822
LeftFoot  10.1137 -2.62072 13.5519
LeftToes  1.06248e-005 4.65855e-005 -8.185e-006
416
root  -27.2903 38.104 -9.50704 177.951 -58.9356 176.991
RightUpLeg  13.2236 -22.6795 -5.958
RightLeg  36.9558 -1.24861 -1.24863
RightFoot  -14.8228 0.28587 12.1447
RightToes  0.00048216 0.542163 -0.142577
Spine  13.6281 3.38594 -0.31596
Spine1  12.6207 5.33778 -5.32183
HEad  9.06994 0.950626 1.30774
LeftShoulder1  8.72864 -13.1363 -45.738
LeftArm  -25.1351 28.0325 -15.2832
LeftForeArm  58.3957 -78.7465 -72.8622
LeftHand  -0.25398 0.0180481 5.50724
RightShoulder  6.62394 10.9458 39.7182
RightArm  -3.58174 -16.4815 31.2392
RightForeArm  5.95843 77.0832 73.787
RightHand  0.377188 -7.19205 -25.262
LeftUpLeg  -25.0462 19.6428 -10.2022
LeftLeg  13.3142 11.7911 0.664877
LeftFoot  10.0097 -3.17566 16.4136
LeftToes  1.06248e-005 4.65855e-005 -8.185e-006
